<?xml version="1.0" standalone="no"?>
<!DOCTYPE svg PUBLIC "-//W3C//DTD SVG 20010904//EN"
 "http://www.w3.org/TR/2001/REC-SVG-20010904/DTD/svg10.dtd">
<svg version="1.0" xmlns="http://www.w3.org/2000/svg"
 width="1080.000000pt" height="1080.000000pt" viewBox="0 0 1080.000000 1080.000000"
 preserveAspectRatio="xMidYMid meet">

<g transform="translate(0.000000,1080.000000) scale(0.100000,-0.100000)"
fill="#000000" stroke="none">
<path d="M0 5400 l0 -5400 5400 0 5400 0 0 5400 0 5400 -5400 0 -5400 0 0
-5400z m5003 3215 c370 -48 697 -209 963 -473 66 -65 77 -72 148 -91 148 -41
277 -124 418 -269 188 -194 310 -419 381 -701 30 -119 31 -136 32 -316 0 -121
-5 -212 -13 -250 -40 -184 -107 -320 -206 -420 -67 -68 -69 -72 -87 -154 -16
-70 -68 -233 -93 -292 -6 -13 2 -15 56 -12 35 2 112 11 173 19 155 20 293 18
392 -6 246 -59 442 -218 560 -455 49 -98 72 -178 98 -346 l5 -36 103 -31 c56
-18 144 -41 195 -53 80 -19 96 -20 118 -8 42 22 233 215 238 240 2 13 10 51
16 84 28 139 143 290 270 352 208 102 399 48 714 -204 268 -213 366 -385 353
-618 -6 -116 -33 -194 -98 -281 -44 -60 -130 -123 -204 -149 -65 -23 -221 -31
-294 -15 -80 18 -164 55 -253 112 l-78 50 -46 -38 c-207 -175 -377 -268 -525
-289 l-54 -8 64 -13 c136 -28 250 -113 309 -230 82 -164 135 -413 136 -644 1
-138 -2 -163 -23 -229 -31 -94 -108 -210 -175 -263 -114 -91 -253 -131 -380
-110 -224 38 -381 212 -456 508 l-10 41 -128 6 c-225 12 -380 48 -490 114
-125 76 -283 263 -423 500 -35 58 -67 106 -73 108 -6 1 -61 8 -121 14 -287 29
-571 134 -823 304 l-109 74 -43 -96 c-24 -53 -81 -171 -127 -262 -46 -92 -83
-169 -83 -173 0 -3 78 -6 174 -6 171 0 175 0 227 -28 42 -21 61 -40 87 -82 32
-54 32 -55 32 -185 0 -119 -2 -136 -23 -176 -13 -24 -41 -57 -63 -72 -24 -17
-498 -199 -1188 -457 l-1148 -430 -832 0 -831 0 -51 24 c-48 22 -85 60 -114
114 -6 13 -15 65 -19 115 -7 89 -17 118 -311 902 -338 901 -333 884 -285 980
34 71 67 93 231 154 71 27 458 171 859 321 402 150 733 275 737 279 4 3 -27
56 -68 116 -181 266 -325 623 -386 958 -33 176 -32 494 1 647 45 212 118 384
235 553 33 49 90 137 126 196 94 154 171 252 290 371 364 365 937 639 1495
714 136 19 360 19 498 1z"/>
<path d="M4640 8439 c-284 -17 -591 -106 -915 -264 -392 -192 -680 -452 -865
-779 -18 -32 -57 -90 -85 -128 -114 -152 -207 -375 -241 -577 -23 -141 -15
-421 16 -566 50 -233 120 -430 230 -644 84 -163 176 -294 288 -412 l82 -87
-995 -372 c-627 -235 -999 -379 -1005 -389 -6 -12 79 -250 306 -856 304 -814
314 -842 314 -911 0 -47 4 -75 13 -83 10 -7 245 -11 814 -11 l801 -1 1114 417
c612 228 1123 422 1136 430 20 13 22 22 22 92 0 47 -5 85 -12 95 -12 15 -46
17 -335 19 l-321 3 79 140 c140 246 312 599 395 812 15 37 31 72 36 78 5 5 35
-17 76 -57 201 -198 495 -354 783 -416 103 -23 261 -42 338 -42 l49 0 43 -77
c114 -209 260 -416 351 -498 61 -55 123 -86 234 -117 70 -19 104 -22 306 -22
l227 -1 6 -75 c26 -306 180 -503 380 -487 157 12 277 142 307 331 9 58 8 98
-6 212 -38 323 -124 511 -252 555 -56 19 -159 17 -223 -5 -33 -11 -73 -36
-100 -61 -64 -60 -122 -75 -306 -82 -179 -7 -288 7 -323 40 -40 37 -119 140
-198 258 l-75 112 78 41 c43 23 101 57 128 78 54 39 151 136 178 179 l17 26
135 -54 c244 -97 512 -152 645 -133 132 19 297 120 475 291 l120 117 83 -79
c130 -123 292 -192 411 -174 222 32 318 256 209 484 -80 168 -456 453 -617
469 -94 9 -206 -54 -266 -148 -27 -44 -55 -131 -55 -174 0 -46 -58 -127 -179
-247 -139 -137 -185 -169 -248 -169 -72 0 -389 81 -549 141 l-51 19 -6 113
c-7 133 -25 204 -77 312 -100 207 -286 345 -506 376 -61 8 -102 7 -201 -6
-180 -23 -434 -37 -535 -29 -49 3 -88 7 -88 9 0 2 19 34 42 71 88 145 160 334
193 504 9 47 18 95 20 106 3 12 18 27 34 34 72 30 170 168 205 291 44 152 51
359 16 527 -91 450 -408 840 -726 894 -71 11 -76 14 -115 61 -54 64 -197 188
-284 247 -152 102 -358 189 -538 225 -69 14 -113 18 -277 28 -25 2 -97 0 -160
-4z m278 -89 c338 -37 623 -173 857 -409 76 -77 79 -82 65 -104 -83 -132 -103
-214 -103 -432 -1 -165 6 -221 49 -395 3 -14 -23 34 -59 105 -183 362 -408
606 -697 755 -192 98 -355 138 -596 147 -219 8 -416 -19 -639 -88 -212 -66
-450 -176 -612 -282 l-83 -54 30 38 c38 47 167 168 240 224 160 123 390 252
595 333 246 97 393 133 680 166 66 7 181 5 273 -4z m1192 -589 c88 -44 144
-87 232 -179 95 -100 147 -176 213 -316 119 -247 152 -515 95 -743 -28 -108
-72 -193 -126 -243 -42 -39 -50 -42 -89 -38 -23 3 -64 16 -91 29 -64 32 -188
155 -249 249 -104 160 -198 393 -247 610 -31 140 -33 411 -5 505 23 72 62 151
79 159 31 14 127 -3 188 -33z m-2851 -352 l62 -81 -64 -67 c-78 -81 -115 -136
-167 -243 -51 -105 -87 -221 -103 -334 l-13 -88 -89 2 c-122 4 -125 5 -125 54
0 57 36 225 66 310 38 105 104 236 164 322 55 80 174 206 195 206 6 0 40 -36
74 -81z m2767 -942 c86 -129 185 -226 276 -272 39 -19 77 -35 85 -35 16 0 13
-23 -22 -176 -88 -375 -334 -708 -700 -946 -321 -209 -780 -366 -1120 -383
l-100 -5 101 24 c751 180 1258 626 1390 1221 21 96 30 380 15 499 -11 86 -49
269 -66 321 -4 11 12 -18 35 -65 22 -46 70 -129 106 -183z m-3060 10 c1 -1 4
-45 8 -98 l7 -95 -103 -16 c-57 -8 -106 -12 -111 -9 -4 4 -10 56 -14 117 l-6
109 109 -3 c60 -2 110 -5 110 -5z m2618 -521 c48 -14 90 -27 92 -29 7 -7 -56
-177 -91 -247 -93 -183 -250 -373 -388 -468 -124 -85 -109 -87 -165 24 l-49
97 72 48 c166 111 324 331 391 543 12 37 23 56 33 56 9 0 56 -11 105 -24z
m1496 -566 c12 -6 24 -33 34 -79 9 -39 16 -72 16 -75 0 -4 -56 -6 -124 -6
l-123 0 -13 58 c-6 31 -14 67 -17 79 -4 15 0 23 14 26 35 9 194 7 213 -3z
m-298 -90 c91 -394 11 -882 -204 -1237 -16 -27 -26 -33 -53 -33 -65 0 -66 4
-28 87 77 167 138 414 131 527 -3 48 -5 51 -48 72 -124 62 -676 170 -825 162
l-60 -3 -38 -70 c-39 -74 -40 -62 -2 58 l23 72 90 65 c135 97 256 203 329 289
l65 76 191 -2 c106 -2 230 1 277 6 139 14 132 17 152 -69z m583 -66 c112 -110
175 -255 191 -438 l7 -78 -42 7 c-46 8 -71 -5 -71 -36 0 -27 28 -41 195 -99
209 -72 405 -126 529 -146 l105 -17 53 26 c30 15 99 66 153 115 172 154 274
296 275 382 1 115 103 223 212 224 134 0 493 -273 565 -431 49 -106 40 -218
-23 -293 -60 -71 -196 -79 -320 -19 -53 26 -92 57 -172 136 -56 57 -109 103
-117 103 -8 0 -67 -54 -131 -119 -216 -223 -379 -321 -534 -321 -160 0 -458
83 -679 190 -128 62 -149 68 -169 48 -22 -22 -13 -48 23 -69 19 -12 35 -24 35
-28 0 -10 -77 -103 -108 -129 -55 -48 -172 -120 -237 -146 -37 -15 -69 -25
-71 -23 -2 2 16 44 40 93 57 115 99 244 133 403 25 115 27 145 28 356 0 220
-9 309 -42 419 -10 33 94 -32 172 -110z m-217 -101 c3 -23 2 -23 -121 -23
-127 0 -137 3 -137 41 0 6 52 8 128 7 123 -3 127 -4 130 -25z m12 -195 c0 -62
-7 -162 -15 -223 -8 -60 -15 -111 -15 -112 0 -2 -59 -3 -131 -3 l-131 0 6 28
c15 70 25 188 26 300 l0 122 130 0 130 0 0 -112z m-3455 -746 c163 -437 295
-795 293 -796 -10 -8 -2159 -808 -2162 -805 -7 8 -594 1584 -591 1587 4 5
2160 811 2162 809 1 -1 135 -359 298 -795z m1853 641 c-41 -152 -202 -548
-330 -815 l-81 -167 -30 25 c-40 34 -95 61 -140 69 -20 4 -37 9 -37 11 0 3 22
44 49 92 78 137 226 445 279 581 l49 124 119 57 c66 32 122 59 126 59 3 1 2
-16 -4 -36z m377 -54 c236 -34 583 -113 608 -138 12 -12 -32 -279 -49 -299 -1
-2 -121 36 -267 84 l-264 88 -19 80 -19 80 -95 34 c-52 19 -97 36 -99 38 -2 2
1 15 7 29 14 31 18 31 197 4z m-2070 -138 c61 -11 164 -32 230 -47 109 -24
140 -27 338 -28 119 -1 217 -2 217 -3 0 -1 -25 -57 -56 -124 -63 -141 -164
-330 -270 -505 -115 -192 -140 -229 -166 -242 -21 -12 -29 -11 -63 9 -21 13
-61 30 -88 39 l-50 16 -163 440 c-90 241 -171 455 -178 475 l-15 36 77 -23
c42 -13 127 -32 187 -43z m1324 17 c-50 -129 -116 -274 -186 -408 -103 -198
-353 -613 -353 -586 0 5 51 113 114 240 115 233 196 417 283 645 l48 123 45
18 c70 28 72 26 49 -32z m601 -1 l85 -32 17 -74 c9 -41 21 -78 26 -83 6 -6
131 -49 278 -97 311 -102 289 -80 223 -222 -30 -64 -47 -89 -60 -89 -55 0
-330 109 -426 169 -31 19 -33 25 -33 74 0 44 -6 62 -29 94 -48 66 -111 86
-193 61 -32 -9 -41 -9 -54 4 -14 13 -11 26 28 121 24 59 45 107 48 106 3 0 43
-14 90 -32z m-800 -21 c0 -11 -128 -325 -184 -449 -58 -130 -143 -306 -152
-316 -1 -1 -18 9 -38 24 -38 29 -125 65 -156 65 -19 0 -17 6 20 73 55 97 187
361 235 468 l38 87 86 17 c47 10 95 22 106 26 22 8 45 11 45 5z m2120 -110 c0
-44 -7 -46 -141 -46 -109 0 -128 2 -124 15 3 8 7 22 10 30 6 22 255 22 255 1z
m-1304 -150 c22 -22 34 -44 34 -61 l0 -27 -37 28 c-21 15 -53 39 -70 52 -38
28 -35 42 9 42 21 0 40 -10 64 -34z m1274 29 c0 -13 -52 -141 -85 -209 l-38
-76 -123 0 c-68 0 -124 2 -124 5 0 3 13 31 29 63 15 31 41 94 57 139 l29 83
128 0 c70 0 127 -2 127 -5z m-172 -357 c-7 -19 -106 -32 -226 -29 -30 1 -31 3
-20 21 12 18 24 20 131 20 90 0 118 -3 115 -12z m234 -203 c112 -170 192 -264
247 -292 24 -12 73 -25 111 -29 66 -6 68 -7 74 -36 9 -46 7 -109 -5 -152 l-11
-39 -64 7 c-36 4 -102 18 -147 32 -77 25 -87 31 -162 108 -82 82 -214 271
-294 418 l-42 77 28 6 c15 3 60 14 98 24 39 9 73 15 76 12 3 -3 44 -64 91
-136z m-2614 31 c26 -13 58 -35 70 -49 l24 -25 -24 -41 c-15 -28 -28 -39 -38
-35 -53 20 -140 35 -186 32 -30 -1 -54 -2 -54 0 0 2 19 35 41 73 40 67 43 69
80 69 22 0 61 -11 87 -24z m487 -10 c52 -25 95 -59 95 -77 0 -12 -85 -168
-162 -296 l-49 -83 -400 0 c-444 0 -419 -4 -399 69 17 63 68 122 139 158 55
29 72 33 140 33 99 0 155 -19 221 -76 29 -25 60 -44 69 -42 18 3 79 90 168
240 56 93 59 97 93 98 19 0 58 -11 85 -24z m3334 -207 c48 -27 77 -71 111
-171 49 -143 65 -239 65 -398 0 -162 -10 -200 -75 -274 -104 -118 -257 -103
-353 34 -57 82 -78 162 -84 318 -6 152 -8 155 -88 142 -27 -5 -108 -12 -178
-16 l-128 -7 8 29 c4 16 8 68 8 115 l0 86 130 6 c170 8 279 38 305 86 5 11 33
31 62 45 68 34 162 36 217 5z m-4309 -24 c35 -18 35 -16 12 -55 l-19 -30 -12
37 c-7 21 -15 44 -17 51 -7 16 1 15 36 -3z m1540 -330 l0 -25 -740 0 -740 0 0
25 0 25 740 0 740 0 0 -25z m-1562 -16 c-3 -22 -31 -32 -1748 -674 -212 -79
-393 -147 -403 -151 -15 -5 -18 -3 -15 16 3 20 79 50 683 277 374 140 858 321
1075 403 217 82 399 149 403 149 5 1 7 -8 5 -20z m1351 -99 c-9 -5 -461 -176
-1006 -380 l-990 -370 -658 2 -657 3 893 334 c492 184 944 353 1004 377 l110
42 660 1 c414 0 654 -3 644 -9z"/>
<path d="M3907 4443 c-6 -5 185 -513 192 -513 11 0 251 419 251 438 0 5 -24 9
-52 11 -80 3 -246 29 -321 50 -37 10 -68 16 -70 14z"/>
<path d="M7563 4078 c-15 -16 -58 -53 -95 -81 -75 -58 -75 -50 -1 -142 l49
-60 104 -8 c59 -4 137 -4 176 2 62 8 79 15 123 49 67 53 141 87 224 104 l68
14 -98 12 c-118 15 -295 59 -426 106 l-95 34 -29 -30z"/>
</g>
</svg>
